<mxfile host="app.diagrams.net" modified="2023-10-28T08:49:26.061Z" agent="Mozilla/5.0 (Windows NT 10.0; Win64; x64) AppleWebKit/537.36 (KHTML, like Gecko) Chrome/118.0.0.0 Safari/537.36" etag="Zj4vDcLsTfQ3CLveFBSp" version="22.0.8" type="device">
  <diagram name="Page-1" id="1qInIWenZEX1ilPvD4Nf">
    <mxGraphModel dx="1050" dy="566" grid="1" gridSize="10" guides="1" tooltips="1" connect="1" arrows="1" fold="1" page="1" pageScale="1" pageWidth="850" pageHeight="1100" math="0" shadow="0">
      <root>
        <mxCell id="0" />
        <mxCell id="1" parent="0" />
        <mxCell id="V93OD3BIQ5_SVgYz7lWE-1" value="Data Analyser" style="swimlane;fontStyle=1;align=center;verticalAlign=top;childLayout=stackLayout;horizontal=1;startSize=26;horizontalStack=0;resizeParent=1;resizeParentMax=0;resizeLast=0;collapsible=1;marginBottom=0;whiteSpace=wrap;html=1;" vertex="1" parent="1">
          <mxGeometry x="150" y="120" width="270" height="260" as="geometry" />
        </mxCell>
        <mxCell id="V93OD3BIQ5_SVgYz7lWE-2" value="-&amp;nbsp; _numbers: List&amp;lt;int&amp;gt;&lt;br&gt;- _strategy: SummaryStrategy" style="text;strokeColor=none;fillColor=none;align=left;verticalAlign=top;spacingLeft=4;spacingRight=4;overflow=hidden;rotatable=0;points=[[0,0.5],[1,0.5]];portConstraint=eastwest;whiteSpace=wrap;html=1;" vertex="1" parent="V93OD3BIQ5_SVgYz7lWE-1">
          <mxGeometry y="26" width="270" height="44" as="geometry" />
        </mxCell>
        <mxCell id="V93OD3BIQ5_SVgYz7lWE-3" value="" style="line;strokeWidth=1;fillColor=none;align=left;verticalAlign=middle;spacingTop=-1;spacingLeft=3;spacingRight=3;rotatable=0;labelPosition=right;points=[];portConstraint=eastwest;strokeColor=inherit;" vertex="1" parent="V93OD3BIQ5_SVgYz7lWE-1">
          <mxGeometry y="70" width="270" height="8" as="geometry" />
        </mxCell>
        <mxCell id="V93OD3BIQ5_SVgYz7lWE-4" value="&lt;div&gt;+DataAnalyser()&lt;/div&gt;&lt;div&gt;+DataAnalyser(Summary Strategy strategy)&lt;/div&gt;&lt;div&gt;+DataAnalyser(List&amp;lt;Int&amp;gt; numbers)&lt;/div&gt;&lt;div&gt;+DataAnalyser(List&amp;lt;Int&amp;gt;numbers,SummaryStrategy strategy)&lt;/div&gt;&lt;div&gt;+Strategy: SummaryStrategy &amp;lt;&amp;lt;property&amp;gt;&amp;gt;&lt;/div&gt;&lt;div&gt;+addNumber(int number)&lt;/div&gt;&lt;div&gt;+Summarise()&lt;/div&gt;" style="text;strokeColor=none;fillColor=none;align=left;verticalAlign=top;spacingLeft=4;spacingRight=4;overflow=hidden;rotatable=0;points=[[0,0.5],[1,0.5]];portConstraint=eastwest;whiteSpace=wrap;html=1;" vertex="1" parent="V93OD3BIQ5_SVgYz7lWE-1">
          <mxGeometry y="78" width="270" height="182" as="geometry" />
        </mxCell>
        <mxCell id="V93OD3BIQ5_SVgYz7lWE-5" value="SummaryStrategy" style="swimlane;fontStyle=1;align=center;verticalAlign=top;childLayout=stackLayout;horizontal=1;startSize=26;horizontalStack=0;resizeParent=1;resizeParentMax=0;resizeLast=0;collapsible=1;marginBottom=0;whiteSpace=wrap;html=1;" vertex="1" parent="1">
          <mxGeometry x="650" y="130" width="230" height="126" as="geometry" />
        </mxCell>
        <mxCell id="V93OD3BIQ5_SVgYz7lWE-7" value="" style="line;strokeWidth=1;fillColor=none;align=left;verticalAlign=middle;spacingTop=-1;spacingLeft=3;spacingRight=3;rotatable=0;labelPosition=right;points=[];portConstraint=eastwest;strokeColor=inherit;" vertex="1" parent="V93OD3BIQ5_SVgYz7lWE-5">
          <mxGeometry y="26" width="230" height="24" as="geometry" />
        </mxCell>
        <mxCell id="V93OD3BIQ5_SVgYz7lWE-8" value="&lt;div&gt;+PrintSummary(List&amp;lt;Int&amp;gt;numbers)&lt;/div&gt;&lt;div&gt;&amp;lt;&amp;lt;abstract&amp;gt;&amp;gt;&lt;/div&gt;" style="text;strokeColor=none;fillColor=none;align=left;verticalAlign=top;spacingLeft=4;spacingRight=4;overflow=hidden;rotatable=0;points=[[0,0.5],[1,0.5]];portConstraint=eastwest;whiteSpace=wrap;html=1;" vertex="1" parent="V93OD3BIQ5_SVgYz7lWE-5">
          <mxGeometry y="50" width="230" height="76" as="geometry" />
        </mxCell>
        <mxCell id="V93OD3BIQ5_SVgYz7lWE-13" value="AverageSummary" style="swimlane;fontStyle=1;align=center;verticalAlign=top;childLayout=stackLayout;horizontal=1;startSize=26;horizontalStack=0;resizeParent=1;resizeParentMax=0;resizeLast=0;collapsible=1;marginBottom=0;whiteSpace=wrap;html=1;" vertex="1" parent="1">
          <mxGeometry x="440" y="420" width="230" height="140" as="geometry" />
        </mxCell>
        <mxCell id="V93OD3BIQ5_SVgYz7lWE-14" value="..." style="text;strokeColor=none;fillColor=none;align=left;verticalAlign=top;spacingLeft=4;spacingRight=4;overflow=hidden;rotatable=0;points=[[0,0.5],[1,0.5]];portConstraint=eastwest;whiteSpace=wrap;html=1;" vertex="1" parent="V93OD3BIQ5_SVgYz7lWE-13">
          <mxGeometry y="26" width="230" height="26" as="geometry" />
        </mxCell>
        <mxCell id="V93OD3BIQ5_SVgYz7lWE-15" value="" style="line;strokeWidth=1;fillColor=none;align=left;verticalAlign=middle;spacingTop=-1;spacingLeft=3;spacingRight=3;rotatable=0;labelPosition=right;points=[];portConstraint=eastwest;strokeColor=inherit;" vertex="1" parent="V93OD3BIQ5_SVgYz7lWE-13">
          <mxGeometry y="52" width="230" height="8" as="geometry" />
        </mxCell>
        <mxCell id="V93OD3BIQ5_SVgYz7lWE-16" value="&lt;div&gt;+PrintSummary(List&amp;lt;Int&amp;gt;numbers)&lt;/div&gt;&amp;lt;&amp;lt;override&amp;gt;&amp;gt;&lt;div&gt;&lt;br&gt;&lt;/div&gt;&lt;div&gt;+Average(List&amp;lt;Int&amp;gt;numbers): float&amp;nbsp;&lt;/div&gt;" style="text;strokeColor=none;fillColor=none;align=left;verticalAlign=top;spacingLeft=4;spacingRight=4;overflow=hidden;rotatable=0;points=[[0,0.5],[1,0.5]];portConstraint=eastwest;whiteSpace=wrap;html=1;" vertex="1" parent="V93OD3BIQ5_SVgYz7lWE-13">
          <mxGeometry y="60" width="230" height="80" as="geometry" />
        </mxCell>
        <mxCell id="V93OD3BIQ5_SVgYz7lWE-17" value="MinMaxSummary" style="swimlane;fontStyle=1;align=center;verticalAlign=top;childLayout=stackLayout;horizontal=1;startSize=26;horizontalStack=0;resizeParent=1;resizeParentMax=0;resizeLast=0;collapsible=1;marginBottom=0;whiteSpace=wrap;html=1;" vertex="1" parent="1">
          <mxGeometry x="840" y="395" width="220" height="170" as="geometry" />
        </mxCell>
        <mxCell id="V93OD3BIQ5_SVgYz7lWE-18" value="..." style="text;strokeColor=none;fillColor=none;align=left;verticalAlign=top;spacingLeft=4;spacingRight=4;overflow=hidden;rotatable=0;points=[[0,0.5],[1,0.5]];portConstraint=eastwest;whiteSpace=wrap;html=1;" vertex="1" parent="V93OD3BIQ5_SVgYz7lWE-17">
          <mxGeometry y="26" width="220" height="26" as="geometry" />
        </mxCell>
        <mxCell id="V93OD3BIQ5_SVgYz7lWE-19" value="" style="line;strokeWidth=1;fillColor=none;align=left;verticalAlign=middle;spacingTop=-1;spacingLeft=3;spacingRight=3;rotatable=0;labelPosition=right;points=[];portConstraint=eastwest;strokeColor=inherit;" vertex="1" parent="V93OD3BIQ5_SVgYz7lWE-17">
          <mxGeometry y="52" width="220" height="8" as="geometry" />
        </mxCell>
        <mxCell id="V93OD3BIQ5_SVgYz7lWE-20" value="&lt;div&gt;+PrintSummary(List&amp;lt;Int&amp;gt;numbers)&lt;/div&gt;&lt;div&gt;+Minimum(List&amp;lt;lnt&amp;gt;numbers) int&lt;/div&gt;&lt;div&gt;+Maxium(List&amp;lt;Int&amp;gt;numbers) int&lt;/div&gt;" style="text;strokeColor=none;fillColor=none;align=left;verticalAlign=top;spacingLeft=4;spacingRight=4;overflow=hidden;rotatable=0;points=[[0,0.5],[1,0.5]];portConstraint=eastwest;whiteSpace=wrap;html=1;" vertex="1" parent="V93OD3BIQ5_SVgYz7lWE-17">
          <mxGeometry y="60" width="220" height="110" as="geometry" />
        </mxCell>
        <mxCell id="V93OD3BIQ5_SVgYz7lWE-22" style="edgeStyle=orthogonalEdgeStyle;rounded=0;orthogonalLoop=1;jettySize=auto;html=1;entryX=0.003;entryY=0.483;entryDx=0;entryDy=0;entryPerimeter=0;" edge="1" parent="1" source="V93OD3BIQ5_SVgYz7lWE-2" target="V93OD3BIQ5_SVgYz7lWE-7">
          <mxGeometry relative="1" as="geometry" />
        </mxCell>
        <mxCell id="V93OD3BIQ5_SVgYz7lWE-24" style="edgeStyle=orthogonalEdgeStyle;rounded=0;orthogonalLoop=1;jettySize=auto;html=1;entryX=0.553;entryY=1.005;entryDx=0;entryDy=0;entryPerimeter=0;endArrow=block;endFill=0;" edge="1" parent="1" source="V93OD3BIQ5_SVgYz7lWE-13" target="V93OD3BIQ5_SVgYz7lWE-8">
          <mxGeometry relative="1" as="geometry">
            <Array as="points">
              <mxPoint x="555" y="338" />
              <mxPoint x="777" y="338" />
            </Array>
          </mxGeometry>
        </mxCell>
        <mxCell id="V93OD3BIQ5_SVgYz7lWE-30" style="edgeStyle=orthogonalEdgeStyle;rounded=0;orthogonalLoop=1;jettySize=auto;html=1;entryX=0.72;entryY=0.995;entryDx=0;entryDy=0;entryPerimeter=0;endArrow=block;endFill=0;" edge="1" parent="1" source="V93OD3BIQ5_SVgYz7lWE-17" target="V93OD3BIQ5_SVgYz7lWE-8">
          <mxGeometry relative="1" as="geometry" />
        </mxCell>
      </root>
    </mxGraphModel>
  </diagram>
</mxfile>
